<?xml version="1.0" standalone="no"?>
<!DOCTYPE svg PUBLIC "-//W3C//DTD SVG 20010904//EN"
 "http://www.w3.org/TR/2001/REC-SVG-20010904/DTD/svg10.dtd">
<svg version="1.0" xmlns="http://www.w3.org/2000/svg"
 width="512.000000pt" height="512.000000pt" viewBox="0 0 512.000000 512.000000"
 preserveAspectRatio="xMidYMid meet">

<g transform="translate(0.000000,512.000000) scale(0.100000,-0.100000)"
fill="#000000" stroke="none">
<path d="M222 4645 c-97 -30 -172 -111 -192 -208 -7 -36 -10 -621 -8 -1907 l3
-1855 21 -46 c27 -58 85 -116 143 -143 l46 -21 2325 0 2325 0 46 21 c58 27
116 85 143 143 l21 46 0 1885 0 1885 -21 46 c-27 58 -85 116 -143 143 l-46 21
-2310 2 c-1919 1 -2317 -1 -2353 -12z m4655 -165 c61 -37 64 -51 61 -342 l-3
-263 -2375 0 -2375 0 -3 263 c-3 291 0 305 61 342 31 20 68 20 2317 20 2249 0
2286 0 2317 -20z m61 -2263 c2 -1655 7 -1536 -61 -1577 -31 -20 -68 -20 -2315
-20 -2523 0 -2321 -5 -2362 63 -20 31 -20 62 -20 1528 0 823 3 1499 7 1502 3
4 1073 6 2377 5 l2371 -3 3 -1498z"/>
<path d="M650 4273 c-38 -35 -51 -78 -36 -123 13 -40 66 -80 106 -80 40 0 93
40 106 80 24 72 -31 150 -106 150 -29 0 -48 -7 -70 -27z"/>
<path d="M1114 4281 c-60 -37 -69 -123 -18 -175 78 -78 206 -12 191 98 -11 82
-100 122 -173 77z"/>
<path d="M1554 4266 c-29 -29 -34 -41 -34 -79 0 -75 61 -127 133 -113 46 9 97
67 97 111 0 32 -33 86 -61 100 -49 26 -97 19 -135 -19z"/>
<path d="M1467 2936 c-20 -8 -135 -161 -397 -526 -397 -552 -396 -552 -347
-598 22 -21 30 -22 357 -24 l335 -3 3 -177 2 -177 27 -20 c33 -27 63 -27 96 0
l27 20 2 177 3 177 108 5 c121 6 137 14 137 75 0 61 -16 69 -137 75 l-108 5
-5 480 c-3 264 -8 485 -12 492 -14 21 -62 31 -91 19z m-52 -983 c-3 -10 -60
-13 -241 -13 -209 0 -235 2 -230 16 6 16 426 605 455 638 15 17 16 -6 19 -305
1 -178 0 -329 -3 -336z"/>
<path d="M2490 2939 c-144 -18 -286 -122 -354 -261 -52 -105 -59 -177 -54
-565 4 -310 5 -331 27 -392 45 -128 131 -226 246 -281 259 -124 559 4 656 281
22 61 23 82 27 392 2 202 0 359 -7 410 -22 163 -117 299 -260 370 -39 20 -93
39 -119 42 -26 3 -58 7 -72 9 -14 1 -54 -1 -90 -5z m197 -179 c60 -26 128 -94
160 -159 l28 -56 0 -375 0 -375 -26 -55 c-33 -68 -85 -122 -152 -157 -45 -23
-64 -27 -137 -27 -72 0 -93 4 -135 26 -69 36 -123 91 -154 157 l-26 56 0 375
c0 362 1 377 21 421 76 164 262 238 421 169z"/>
<path d="M4074 2942 c-12 -2 -29 -11 -37 -20 -8 -9 -177 -244 -376 -521 -387
-540 -389 -543 -341 -591 19 -19 33 -20 354 -20 l335 0 3 -176 3 -176 29 -25
c23 -19 36 -24 60 -19 61 12 66 29 66 222 l0 174 103 0 c95 0 105 2 125 23 25
27 28 73 6 102 -13 17 -30 21 -122 25 l-107 5 -2 470 c-2 331 -6 477 -14 492
-13 24 -52 41 -85 35z m-64 -667 l0 -335 -236 0 c-193 0 -235 2 -232 14 3 12
459 655 466 656 1 0 2 -151 2 -335z"/>
</g>
</svg>
