<?xml version="1.0" standalone="no"?>
<!DOCTYPE svg PUBLIC "-//W3C//DTD SVG 20010904//EN"
 "http://www.w3.org/TR/2001/REC-SVG-20010904/DTD/svg10.dtd">
<svg version="1.0" xmlns="http://www.w3.org/2000/svg"
 width="512.000000pt" height="512.000000pt" viewBox="0 0 512.000000 512.000000"
 preserveAspectRatio="xMidYMid meet">

<g transform="translate(0.000000,512.000000) scale(0.100000,-0.100000)"
fill="#000000" stroke="none">
<path d="M2280 4675 c-729 -105 -1335 -548 -1647 -1202 -96 -201 -168 -455
-194 -682 -15 -135 -7 -455 15 -576 84 -462 279 -840 600 -1161 321 -321 699
-516 1161 -600 121 -22 442 -30 576 -15 811 93 1498 633 1774 1394 79 221 115
412 122 662 6 219 -9 379 -58 575 -196 806 -856 1430 -1676 1586 -117 22 -172
27 -358 30 -150 2 -250 -1 -315 -11z m461 -276 c426 -43 823 -231 1125 -533
255 -255 431 -581 503 -932 100 -483 1 -989 -274 -1399 -141 -211 -299 -369
-510 -510 -549 -368 -1250 -414 -1840 -121 -148 73 -231 127 -362 233 -456
369 -715 977 -665 1566 20 238 72 433 173 646 100 210 201 354 363 517 393
392 941 589 1487 533z"/>
<path d="M2500 3683 c-133 -69 -89 -267 60 -267 80 0 140 60 140 141 0 102
-111 172 -200 126z"/>
<path d="M2208 3109 c-21 -10 -45 -34 -54 -52 -24 -44 -22 -111 2 -144 41 -55
66 -65 168 -71 l96 -5 0 -562 0 -563 -95 -4 c-75 -3 -100 -8 -122 -24 -46 -35
-66 -70 -66 -117 0 -57 28 -103 78 -127 38 -19 63 -20 345 -20 282 0 307 1
345 20 101 49 107 173 12 244 -22 16 -47 21 -122 24 l-95 4 0 658 0 657 -23
34 c-41 61 -70 69 -262 69 -149 -1 -175 -3 -207 -21z"/>
</g>
</svg>
