<?xml version="1.0" standalone="no"?>
<!DOCTYPE svg PUBLIC "-//W3C//DTD SVG 20010904//EN"
 "http://www.w3.org/TR/2001/REC-SVG-20010904/DTD/svg10.dtd">
<svg version="1.0" xmlns="http://www.w3.org/2000/svg"
 width="512.000000pt" height="512.000000pt" viewBox="0 0 512.000000 512.000000"
 preserveAspectRatio="xMidYMid meet">

<g transform="translate(0.000000,512.000000) scale(0.100000,-0.100000)"
fill="#000000" stroke="none">
<path d="M2387 5105 c-355 -60 -650 -279 -808 -600 -62 -128 -95 -243 -108
-386 -14 -150 -15 -1467 -1 -1614 26 -272 127 -490 314 -679 143 -144 308
-238 515 -294 85 -23 115 -26 261 -26 146 0 176 3 261 26 207 56 372 150 515
294 187 189 288 407 314 679 14 147 13 1464 -1 1614 -25 268 -139 507 -333
695 -244 236 -598 347 -929 291z m321 -301 c175 -36 311 -112 435 -243 85 -91
153 -216 190 -346 22 -80 22 -85 22 -895 0 -933 3 -894 -88 -1080 -44 -91 -63
-117 -142 -196 -163 -164 -348 -244 -565 -244 -217 0 -402 80 -565 244 -79 79
-98 105 -142 196 -91 186 -88 147 -88 1080 0 810 0 815 22 895 84 303 316 524
618 588 93 20 208 21 303 1z"/>
<path d="M690 2568 c0 -92 27 -270 59 -395 114 -443 401 -836 803 -1100 214
-141 507 -250 748 -278 30 -3 67 -8 83 -11 l27 -6 0 -389 0 -389 150 0 150 0
0 389 0 389 28 6 c15 3 52 8 82 11 241 28 534 137 748 278 402 264 689 657
803 1100 32 125 59 303 59 395 l0 82 -150 0 -150 0 0 -70 c0 -39 -7 -114 -16
-168 -122 -772 -776 -1333 -1554 -1333 -778 0 -1432 561 -1554 1333 -9 54 -16
129 -16 168 l0 70 -150 0 -150 0 0 -82z"/>
</g>
</svg>
