<?xml version="1.0" standalone="no"?>
<!DOCTYPE svg PUBLIC "-//W3C//DTD SVG 20010904//EN"
 "http://www.w3.org/TR/2001/REC-SVG-20010904/DTD/svg10.dtd">
<svg version="1.0" xmlns="http://www.w3.org/2000/svg"
 width="512.000000pt" height="512.000000pt" viewBox="0 0 512.000000 512.000000"
 preserveAspectRatio="xMidYMid meet">

<g transform="translate(0.000000,512.000000) scale(0.100000,-0.100000)"
fill="#000000" stroke="none">
<path d="M247 4229 c-114 -27 -208 -119 -235 -231 -17 -67 -17 -2809 0 -2876
15 -61 69 -143 116 -175 70 -49 111 -61 210 -61 87 -1 95 1 113 23 25 30 24
62 -2 95 -19 24 -27 26 -93 26 -95 0 -150 27 -183 90 l-23 43 0 1397 0 1397
23 43 c16 30 37 51 67 67 l43 23 2074 0 2074 0 24 25 c14 13 25 31 25 39 0 28
-22 64 -47 75 -30 14 -4127 14 -4186 0z"/>
<path d="M4693 4231 c-45 -20 -55 -73 -22 -115 19 -24 27 -26 93 -26 95 0 150
-27 183 -90 l23 -43 0 -1397 0 -1397 -23 -43 c-16 -30 -37 -51 -67 -67 l-43
-23 -2074 0 -2074 0 -24 -25 c-14 -13 -25 -31 -25 -39 0 -29 23 -65 49 -75 18
-8 631 -11 2106 -9 1977 3 2082 4 2120 21 100 45 170 124 193 219 17 67 17
2809 0 2876 -23 95 -96 177 -193 218 -46 19 -190 29 -222 15z"/>
<path d="M4272 3714 c-34 -23 -29 -71 16 -145 84 -140 116 -260 116 -429 -1
-87 -6 -134 -22 -193 -25 -89 -68 -187 -106 -243 -14 -21 -26 -50 -26 -64 0
-38 34 -70 75 -70 43 0 76 39 133 153 112 227 130 477 53 718 -32 99 -107 242
-142 272 -26 21 -67 22 -97 1z"/>
<path d="M4012 3533 c-34 -29 -36 -62 -7 -113 102 -179 109 -334 24 -499 -22
-41 -39 -86 -39 -101 0 -52 70 -88 111 -57 29 22 77 110 105 192 22 65 27 99
27 180 1 122 -13 185 -65 293 -56 115 -105 148 -156 105z"/>
<path d="M3741 3334 c-26 -33 -26 -45 -2 -92 32 -63 34 -94 11 -161 -25 -71
-21 -103 15 -127 43 -28 85 -9 117 53 36 73 43 136 23 215 -21 82 -60 132
-107 136 -29 2 -40 -2 -57 -24z"/>
<path d="M765 3274 c-90 -23 -141 -59 -178 -128 -20 -38 -22 -55 -22 -226 0
-172 2 -188 22 -226 25 -47 73 -91 120 -111 24 -10 96 -13 290 -13 288 0 306
4 370 71 56 60 63 89 63 281 0 146 -3 179 -19 213 -22 49 -63 90 -116 118 -37
20 -57 22 -275 24 -129 1 -244 -1 -255 -3z m115 -349 l0 -205 -54 0 c-69 0
-83 6 -101 41 -19 36 -21 275 -3 315 15 33 59 53 116 54 l42 0 0 -205z m376
172 c23 -27 24 -35 24 -178 0 -146 -1 -151 -25 -174 -22 -23 -31 -25 -125 -25
l-100 0 0 206 0 206 101 -4 c96 -4 103 -5 125 -31z"/>
<path d="M581 2204 c-27 -35 -26 -57 3 -91 l24 -28 359 -3 c197 -2 373 0 391
3 66 12 95 82 52 125 -19 19 -33 20 -414 20 l-395 0 -20 -26z"/>
<path d="M1625 2210 c-25 -28 -23 -76 4 -103 21 -22 23 -22 410 -22 368 0 390
1 410 19 27 25 28 79 1 106 -19 19 -33 20 -413 20 -382 0 -394 -1 -412 -20z"/>
<path d="M2670 2210 c-27 -27 -26 -81 1 -106 20 -18 42 -19 410 -19 387 0 389
0 410 22 27 27 29 75 4 103 -18 19 -30 20 -412 20 -380 0 -394 -1 -413 -20z"/>
<path d="M3710 2210 c-43 -43 -14 -113 52 -125 18 -3 194 -5 391 -3 l359 3 24
28 c29 34 30 56 3 91 l-20 26 -395 0 c-381 0 -395 -1 -414 -20z"/>
<path d="M581 1724 c-24 -31 -26 -43 -9 -79 7 -16 24 -29 47 -36 24 -7 330 -9
922 -7 856 3 888 4 908 22 27 25 28 79 1 106 -20 20 -33 20 -934 20 l-915 0
-20 -26z"/>
<path d="M2670 1730 c-27 -27 -26 -81 1 -106 20 -18 42 -19 410 -19 387 0 389
0 410 22 30 30 30 80 0 105 -22 17 -49 18 -412 18 -376 0 -390 -1 -409 -20z"/>
</g>
</svg>
