<?xml version="1.0" standalone="no"?>
<!DOCTYPE svg PUBLIC "-//W3C//DTD SVG 20010904//EN"
 "http://www.w3.org/TR/2001/REC-SVG-20010904/DTD/svg10.dtd">
<svg version="1.0" xmlns="http://www.w3.org/2000/svg"
 width="512.000000pt" height="512.000000pt" viewBox="0 0 512.000000 512.000000"
 preserveAspectRatio="xMidYMid meet">

<g transform="translate(0.000000,512.000000) scale(0.100000,-0.100000)"
fill="#000000" stroke="none">
<path d="M215 5102 c-99 -34 -174 -117 -195 -215 -8 -37 -10 -701 -8 -2357 l3
-2305 21 -46 c28 -60 93 -125 153 -153 l46 -21 1795 0 1795 0 46 21 c60 28
125 93 153 153 19 41 21 67 24 235 l4 189 271 -270 c150 -149 288 -279 307
-290 123 -71 295 -46 398 57 75 76 87 108 87 240 0 103 -2 119 -24 155 -13 22
-211 228 -439 457 l-415 416 40 84 c225 463 157 1006 -177 1407 l-50 60 0 567
c0 483 -2 571 -15 598 -20 42 -992 1012 -1028 1025 -19 8 -459 11 -1385 11
-1260 -1 -1361 -2 -1407 -18z m2657 -559 c3 -362 4 -380 24 -424 28 -60 93
-125 153 -153 44 -20 62 -21 424 -24 l377 -3 0 -425 c0 -337 -3 -424 -12 -418
-7 4 -24 15 -38 25 -48 33 -205 107 -280 132 -145 48 -233 61 -405 61 -232 1
-400 -39 -593 -139 -365 -190 -600 -502 -689 -916 -13 -62 -17 -126 -17 -249
1 -158 11 -233 50 -367 l6 -23 -631 -2 -631 -3 -27 -28 c-41 -40 -39 -99 5
-138 l32 -29 669 0 669 0 30 -53 c49 -87 145 -208 229 -287 393 -374 973 -464
1461 -227 l83 40 45 -44 45 -44 -3 -272 -3 -273 -28 -27 -27 -28 -1760 0
-1760 0 -27 28 -28 27 0 2299 c0 2285 0 2299 20 2321 11 12 29 26 40 31 11 4
599 8 1307 8 l1287 1 3 -377z m571 -401 c-142 -2 -272 0 -289 3 -17 3 -42 17
-55 31 l-24 26 -3 286 -3 287 316 -315 315 -315 -257 -3z m-108 -1047 c375
-79 689 -356 811 -713 174 -509 -32 -1053 -501 -1321 -218 -125 -507 -169
-760 -116 -374 78 -689 356 -811 713 -221 647 182 1328 856 1446 106 19 295
15 405 -9z m1187 -2292 c346 -348 397 -403 403 -435 10 -52 -1 -86 -39 -124
-38 -38 -72 -49 -124 -39 -32 6 -87 57 -435 404 l-398 397 93 96 c51 52 95 96
98 97 3 0 184 -178 402 -396z"/>
<path d="M603 4378 c-58 -28 -63 -122 -9 -162 27 -21 31 -21 1021 -21 l993 0
26 24 c31 30 42 73 26 112 -26 62 25 59 -1052 58 -672 0 -990 -4 -1005 -11z"/>
<path d="M615 3691 c-37 -16 -60 -51 -60 -93 0 -33 6 -45 33 -69 18 -16 43
-29 57 -29 107 0 144 139 50 185 -36 17 -50 18 -80 6z"/>
<path d="M1033 3686 c-61 -27 -74 -107 -24 -157 l29 -29 777 0 c850 0 819 -2
845 59 16 39 5 82 -26 112 l-26 24 -771 2 c-641 2 -777 0 -804 -11z"/>
<path d="M620 2997 c-49 -17 -76 -72 -60 -121 22 -68 3 -66 574 -66 l515 0 28
24 c23 20 28 32 28 69 0 54 -22 82 -74 97 -54 15 -966 12 -1011 -3z"/>
<path d="M603 2298 c-58 -28 -63 -122 -9 -162 27 -21 37 -21 513 -21 l485 0
29 33 c42 47 36 103 -15 144 -19 16 -61 18 -501 17 -317 0 -487 -4 -502 -11z"/>
<path d="M620 917 c-49 -17 -76 -72 -60 -121 22 -68 9 -66 520 -66 l461 0 24
24 c36 36 42 73 19 115 -13 24 -31 40 -54 48 -49 17 -861 17 -910 0z"/>
<path d="M1845 896 c-32 -32 -40 -69 -25 -107 17 -39 46 -59 90 -59 44 0 73
20 90 59 26 64 -20 131 -90 131 -30 0 -47 -6 -65 -24z"/>
<path d="M3000 2894 c-218 -40 -375 -118 -510 -254 -115 -114 -194 -256 -236
-420 -26 -104 -26 -296 0 -400 84 -331 325 -572 656 -656 104 -26 296 -26 400
0 331 84 572 325 656 656 26 104 26 296 0 400 -83 326 -317 564 -641 652 -68
18 -271 32 -325 22z m242 -209 c245 -51 436 -223 516 -462 22 -67 26 -95 26
-203 0 -108 -4 -136 -26 -203 -99 -298 -378 -492 -683 -474 -349 21 -621 293
-642 642 -25 436 384 791 809 700z"/>
<path d="M3075 2461 c-31 -13 -55 -45 -61 -83 -8 -46 32 -95 84 -103 20 -3 60
-12 89 -21 94 -27 173 -132 173 -231 0 -44 43 -92 91 -99 28 -5 41 -1 67 21
38 32 47 72 33 151 -34 184 -178 329 -360 364 -63 12 -88 12 -116 1z"/>
</g>
</svg>
