<?xml version="1.0" standalone="no"?>
<!DOCTYPE svg PUBLIC "-//W3C//DTD SVG 20010904//EN"
 "http://www.w3.org/TR/2001/REC-SVG-20010904/DTD/svg10.dtd">
<svg version="1.0" xmlns="http://www.w3.org/2000/svg"
 width="512.000000pt" height="512.000000pt" viewBox="0 0 512.000000 512.000000"
 preserveAspectRatio="xMidYMid meet">

<g transform="translate(0.000000,512.000000) scale(0.100000,-0.100000)"
fill="#000000" stroke="none">
<path d="M2050 4804 c-14 -2 -70 -11 -125 -20 -418 -67 -838 -301 -1127 -629
-505 -573 -630 -1388 -322 -2088 160 -364 449 -686 799 -892 230 -136 488
-221 768 -256 123 -15 431 -7 545 15 335 62 612 185 871 384 l83 65 347 -346
c190 -190 356 -350 368 -356 12 -6 43 -11 70 -11 110 0 182 110 142 217 -5 15
-165 183 -355 373 -189 190 -344 348 -344 352 0 4 26 42 59 85 170 226 285
484 348 782 26 118 27 142 27 381 0 239 -1 263 -27 381 -71 334 -212 627 -419
874 -284 339 -668 567 -1108 660 -109 23 -153 27 -350 30 -124 2 -236 2 -250
-1z m495 -324 c649 -111 1180 -624 1315 -1273 152 -730 -204 -1468 -869 -1802
-106 -53 -289 -116 -401 -139 -622 -126 -1257 114 -1641 619 -350 461 -426
1088 -197 1625 206 485 648 849 1165 960 203 43 413 47 628 10z"/>
</g>
</svg>
