<?xml version="1.0" standalone="no"?>
<!DOCTYPE svg PUBLIC "-//W3C//DTD SVG 20010904//EN"
 "http://www.w3.org/TR/2001/REC-SVG-20010904/DTD/svg10.dtd">
<svg version="1.0" xmlns="http://www.w3.org/2000/svg"
 width="512.000000pt" height="512.000000pt" viewBox="0 0 512.000000 512.000000"
 preserveAspectRatio="xMidYMid meet">

<g transform="translate(0.000000,512.000000) scale(0.100000,-0.100000)"
fill="#000000" stroke="none">
<path d="M63 4256 c-33 -15 -63 -60 -63 -96 0 -37 30 -81 65 -96 27 -11 98
-14 334 -14 276 0 305 -2 354 -20 68 -26 126 -75 159 -136 16 -30 161 -521
373 -1259 213 -744 358 -1235 377 -1275 60 -124 200 -239 339 -275 84 -23
2188 -22 2274 0 135 36 268 139 332 261 22 40 110 323 269 864 219 743 237
811 238 885 1 68 -3 88 -27 137 -30 62 -83 115 -149 150 l-43 23 -1800 3
c-989 1 -1803 6 -1807 10 -4 4 -39 118 -78 252 -39 135 -84 272 -100 305 -59
120 -167 214 -304 264 -70 25 -76 26 -391 28 -260 3 -326 0 -352 -11z m4788
-1072 c44 -22 63 -73 48 -127 -45 -168 -460 -1572 -473 -1599 -28 -59 -72
-103 -138 -139 l-63 -34 -1085 0 -1085 0 -47 22 c-64 29 -130 92 -156 150 -19
41 -502 1710 -502 1734 0 5 766 9 1735 9 1556 0 1739 -2 1766 -16z"/>
<path d="M2210 830 c-165 -61 -273 -200 -287 -371 -11 -124 38 -250 132 -338
213 -201 547 -140 676 124 32 67 34 75 34 180 0 103 -2 114 -32 177 -44 93
-109 160 -201 205 -68 34 -83 38 -171 40 -77 3 -107 -1 -151 -17z m204 -202
c81 -25 146 -118 146 -210 0 -51 -46 -135 -91 -165 -92 -61 -192 -51 -269 27
-106 105 -81 268 51 334 58 29 101 32 163 14z"/>
<path d="M3710 832 c-73 -24 -125 -59 -183 -121 -155 -166 -149 -420 14 -584
246 -246 659 -111 719 234 24 136 -26 275 -134 377 -84 78 -148 104 -271 109
-68 2 -104 -1 -145 -15z m215 -211 c158 -71 167 -296 15 -380 -93 -52 -211
-23 -274 67 -40 57 -48 149 -18 208 55 107 174 152 277 105z"/>
</g>
</svg>
